<?xml version="1.0" encoding="utf-8"?>
<!-- Generator: Adobe Illustrator 16.0.0, SVG Export Plug-In . SVG Version: 6.00 Build 0)  -->
<!DOCTYPE svg PUBLIC "-//W3C//DTD SVG 1.1//EN" "http://www.w3.org/Graphics/SVG/1.1/DTD/svg11.dtd">
<svg version="1.1" id="Layer_1" xmlns="http://www.w3.org/2000/svg" xmlns:xlink="http://www.w3.org/1999/xlink" x="0px" y="0px"
	 width="841px" height="156.583px" viewBox="-168 0 841 156.583" enable-background="new -168 0 841 156.583" xml:space="preserve">
<g display="none">
	<path display="inline" fill="#164C7D" d="M65.145-170.004c-34.807,0-63.022,28.217-63.022,63.023s28.217,63.023,63.022,63.023
		c3.544,0,7.019-0.298,10.404-0.859L64.704-12.122c0,0,42.308-41.039,52.709-59.636c7.654-11.372,10.754-22.176,10.754-35.223
		C128.167-141.787,99.952-170.004,65.145-170.004z M75.551-44.817c0.713-0.118,1.423-0.245,2.126-0.389
		C76.341-44.92,75.573-44.82,75.551-44.817z M65.145-88.713c-10.088,0-18.268-8.179-18.268-18.268s8.179-18.268,18.268-18.268
		s18.268,8.179,18.268,18.268S75.233-88.713,65.145-88.713z"/>
	<path display="inline" fill="#FFFFFF" d="M147.396-91.063c0,1.262-1.078,2.285-2.403,2.285L64.4-88.699
		c-1.328,0-2.387-0.733-2.387-1.995l1.93-32.163c0-1.262,1.077-2.284,2.405-2.284h82.06c1.328,0,2.404,1.022,2.404,2.284
		L147.396-91.063z"/>
	<g display="inline">
		<g>
			<g>
				<path fill="#ED1F24" d="M54.091-105.883l2.17-7.834h2.712l1.834-6.658h9.266l-1.802,6.658h3.486l-2.105,7.834h-3.501
					l-0.849,3.138c-0.2,0.738-0.174,1.292,0.077,1.661c0.251,0.37,0.676,0.554,1.273,0.554c0.208,0,0.396,0,0.566,0
					c0.168,0,0.335-0.014,0.499-0.041c0.163-0.027,0.344-0.069,0.54-0.124l-1.992,7.411c-0.333,0.073-0.688,0.135-1.066,0.183
					c-0.327,0.049-0.711,0.092-1.151,0.129c-0.441,0.036-0.91,0.055-1.405,0.055c-2.951,0-5.031-0.82-6.238-2.463
					c-1.203-1.643-1.354-4.094-0.458-7.354l0.868-3.148L54.091-105.883L54.091-105.883z"/>
				<path fill="#ED1F24" d="M86.246-112.815c0.481-0.365,1.03-0.613,1.646-0.744c0.615-0.131,1.313-0.196,2.086-0.196
					c0.389,0,0.742,0.003,1.063,0.007s0.61,0.009,0.868,0.015c0.281,0.007,0.539,0.013,0.771,0.018l-3.777,8.617
					c-0.271-0.156-0.549-0.287-0.832-0.392c-0.26-0.104-0.533-0.195-0.823-0.274c-0.292-0.078-0.58-0.117-0.865-0.117
					c-0.986,0-1.913,0.372-2.781,1.116c-0.869,0.744-1.484,1.809-1.849,3.192l-2.256,8.617h-9.4l5.538-20.76h8.911l0.16,2.351
					C85.15-111.889,85.665-112.371,86.246-112.815z"/>
				<path fill="#ED1F24" d="M103.344-113.756c1.654,0,3.108,0.28,4.363,0.84c1.256,0.56,2.272,1.323,3.057,2.29
					c0.782,0.967,1.299,2.099,1.549,3.396s0.193,2.684-0.17,4.159l-2.488,10.113h-9.008l-0.166-2.46
					c-0.457,0.467-0.967,0.889-1.53,1.266c-0.496,0.312-1.099,0.595-1.802,0.851c-0.705,0.256-1.5,0.383-2.387,0.383
					c-1.072,0-2.004-0.163-2.795-0.489c-0.791-0.326-1.42-0.777-1.885-1.352c-0.467-0.574-0.763-1.253-0.886-2.037
					c-0.125-0.783-0.064-1.645,0.178-2.585c0.242-0.939,0.64-1.802,1.191-2.585c0.553-0.783,1.277-1.462,2.181-2.037
					c0.897-0.574,1.979-1.024,3.245-1.351c1.263-0.326,2.725-0.49,4.386-0.49h3.11c-0.055-0.192-0.205-0.364-0.451-0.519
					c-0.225-0.141-0.551-0.267-0.977-0.375c-0.427-0.109-1.027-0.164-1.808-0.164c-0.491,0-0.962,0.039-1.409,0.116
					c-0.445,0.077-0.84,0.167-1.177,0.271c-0.395,0.116-0.764,0.245-1.108,0.387l-2.154-4.494c0.718-0.574,1.55-1.097,2.496-1.566
					c0.799-0.393,1.742-0.751,2.832-1.077C100.824-113.592,102.027-113.756,103.344-113.756z M99.814-98.981
					c0.494,0,1.015-0.277,1.558-0.831c0.542-0.554,0.969-1.454,1.28-2.702c-1.09,0-1.938,0.223-2.545,0.666
					c-0.604,0.442-0.987,0.983-1.147,1.62c-0.077,0.305-0.025,0.589,0.153,0.853C99.293-99.113,99.527-98.981,99.814-98.981z"/>
			</g>
		</g>
		<g>
			<polyline fill="#ED1F24" points="111.412,-114.428 130.941,-92.956 140.242,-92.956 118.959,-114.428 111.412,-114.428 			"/>
			<path fill="#ED1F24" d="M111.066-92.956c0,0,12.982-19.558,39.746-27.389c0,0-19.922,12.035-31.315,27.389H111.066"/>
		</g>
	</g>
</g>
<path fill="#154C7D" d="M125.607,51.339C118.118,26.418,95.008,8.256,67.646,8.256c-33.427,0-60.523,27.098-60.523,60.524
	c0,33.425,27.098,60.524,60.523,60.524c3.403,0,6.74-0.285,9.991-0.824l-10.414,31.397c0,0,40.629-39.412,50.619-57.271
	c3.68-5.466,6.263-10.797,7.926-16.326C131.37,63.641,125.607,51.339,125.607,51.339z"/>
<path fill="#164C7D" d="M75.551,127.183c0.713-0.118,1.423-0.245,2.126-0.39C76.341,127.081,75.573,127.18,75.551,127.183z"/>
<g>
	<path fill="#ED1F24" d="M670.801,8.294c-57.214,16.741-102.837,43.294-137.26,69.413l-31.298-37.085h-46.696l52.624,57.861
		c-36.521,32.352-54.52,59.441-54.52,59.441h51.521c9.168-12.35,13.896-24.289,24.585-35.703l27.011,35.703h56.281l-59.256-59.773
		C610.364,44.821,670.801,8.294,670.801,8.294z"/>
	<path fill="#ED1F24" d="M208.934,156.094c0,0-29.624,7.255-47.714-5.211c0,0-17.497-9.93-10.216-40.998
		c6.714-25.498,6.028-22.422,6.028-22.422H142.01l11.727-43.163h15.021l9.906-36.163h50.646l-9.878,36.558h18.947l-11.27,42.6
		H207.99l-4.698,17.496c0,0-5.633,15.881,16.307,11.014L208.934,156.094z"/>
	<path fill="#ED1F24" d="M259.809,44.49h48.575l0.938,12.821c0,0,8.789-12.407,23.048-12.821c14.258-0.415,20.574,0,20.574,0
		l-20.574,47.137c0,0-18.607-13.317-33.887,7.256c-4.438,8.109-6.741,18.098-6.741,18.098l-10.605,40.932h-51.359L259.809,44.49z"/>
	<path fill="#ED1F24" d="M454.894,75.971c-9.109-29.367-39.211-31.103-39.211-31.103c-33.203-3.931-57.707,16.476-57.707,16.476
		l12.093,24.474c12.836-4.157,31.782-7.234,37.672,1.817c0,0-22.118-1.622-38.156,1.964c-21,4.354-35.596,16.897-39.437,35.856
		c-3.842,18.942,8.193,32.684,29.11,32.684c20.904,0,32.259-13.564,32.259-13.564l0.875,13.35h49.223l11.333-46.781
		C452.952,111.137,460.242,90.424,454.894,75.971z M384.867,123.909c-5.98-3.842,2.644-20.063,18.35-18.014
		C397.929,126.043,387.257,126.131,384.867,123.909z"/>
</g>
<path fill="#154C7D" d="M-111.825,130.312c0.713-0.119,1.423-0.246,2.126-0.389C-111.035,130.208-111.802,130.308-111.825,130.312z"
	/>
<g>
	<path fill="#154C7D" d="M-46.579,50.476c-7.362-24.499-30.079-42.351-56.975-42.351c-32.858,0-59.495,26.636-59.495,59.495
		c0,32.857,26.637,59.494,59.495,59.494c3.346,0,6.625-0.28,9.822-0.812l-10.237,30.865c0,0,39.938-38.741,49.758-56.298
		c3.618-5.373,6.157-10.611,7.791-16.049l-57.837,0.056c-0.241,0-0.467-0.032-0.684-0.082c-8.873-0.709-15.857-8.12-15.857-17.175
		c0-9.523,7.721-17.245,17.245-17.245L-46.579,50.476z"/>
	<g>
		<path fill="#EC1E24" d="M-22.683,55.004c-9.886,2.893-17.771,7.48-23.719,11.993l-5.407-6.408h-8.069l9.093,9.999
			c-6.31,5.59-9.42,10.272-9.42,10.272h8.902c1.584-2.135,2.401-4.199,4.248-6.172l4.668,6.172h9.724L-42.9,70.529
			C-33.126,61.315-22.683,55.004-22.683,55.004z"/>
		<path fill="#EC1E24" d="M-102.49,80.542c0,0-5.118,1.255-8.246-0.899c0,0-3.023-1.716-1.765-7.085
			c1.16-4.406,1.042-3.875,1.042-3.875h-2.596l2.026-7.459h2.596l1.711-6.249h8.752l-1.706,6.318h3.274l-1.947,7.361h-3.304
			l-0.811,3.023c0,0-0.974,2.744,2.817,1.903L-102.49,80.542z"/>
		<path fill="#EC1E24" d="M-93.699,61.258h8.393l0.163,2.214c0,0,1.519-2.144,3.982-2.214c2.463-0.072,3.555,0,3.555,0l-3.555,8.144
			c0,0-3.215-2.301-5.855,1.253c-0.768,1.401-1.166,3.127-1.166,3.127l-1.834,7.073h-8.874L-93.699,61.258z"/>
		<path fill="#EC1E24" d="M-59.99,66.697c-1.574-5.074-6.775-5.374-6.775-5.374c-5.738-0.678-9.971,2.847-9.971,2.847l2.089,4.228
			c2.218-0.718,5.492-1.249,6.51,0.314c0,0-3.82-0.28-6.593,0.339c-3.628,0.752-6.151,2.92-6.814,6.195
			c-0.664,3.274,1.416,5.647,5.03,5.647s5.576-2.343,5.576-2.343l0.151,2.307h8.504l1.959-8.084
			C-60.325,72.773-59.066,69.194-59.99,66.697z M-72.091,74.981c-1.032-0.664,0.458-3.466,3.171-3.112
			C-69.834,75.35-71.677,75.365-72.091,74.981z"/>
	</g>
</g>
</svg>
