<?xml version="1.0" encoding="utf-8"?>
<!-- Generator: Adobe Illustrator 16.0.0, SVG Export Plug-In . SVG Version: 6.00 Build 0)  -->
<!DOCTYPE svg PUBLIC "-//W3C//DTD SVG 1.0//EN" "http://www.w3.org/TR/2001/REC-SVG-20010904/DTD/svg10.dtd">
<svg version="1.0" id="Layer_1" xmlns="http://www.w3.org/2000/svg" xmlns:xlink="http://www.w3.org/1999/xlink" x="0px" y="0px"
	 width="238.994px" height="29.667px" viewBox="0 0 238.994 29.667" enable-background="new 0 0 238.994 29.667"
	 xml:space="preserve">
<g>
	<g>
		<g>
			<path fill="#FFFFFF" d="M9.872,24.706l2.651-6.469c1.191,0.831,2.25,1.438,3.18,1.82c0.933,0.384,1.804,0.578,2.61,0.578
				c0.57,0,1.02-0.108,1.346-0.324c0.323-0.215,0.487-0.509,0.487-0.876c0-0.644-0.813-1.13-2.446-1.468
				c-0.526-0.114-0.939-0.204-1.229-0.268c-1.728-0.421-3.046-1.168-3.965-2.24c-0.914-1.074-1.372-2.41-1.372-4.008
				c0-2.485,0.892-4.505,2.668-6.061c1.779-1.557,4.107-2.337,6.989-2.337c1.327,0,2.633,0.175,3.914,0.521
				c1.287,0.347,2.579,0.872,3.885,1.578l-2.524,6.045c-0.8-0.59-1.602-1.04-2.407-1.351c-0.806-0.308-1.588-0.465-2.344-0.465
				c-0.579,0-1.026,0.098-1.342,0.292c-0.314,0.196-0.472,0.466-0.472,0.814c0,0.652,1.15,1.224,3.453,1.72
				c0.368,0.084,0.654,0.147,0.854,0.19c1.588,0.355,2.84,1.087,3.755,2.192c0.915,1.104,1.374,2.439,1.374,4.008
				c0,2.557-0.924,4.647-2.771,6.267c-1.847,1.619-4.248,2.431-7.206,2.431c-1.511,0-3.027-0.216-4.543-0.648
				C12.901,26.215,11.389,25.567,9.872,24.706z"/>
		</g>
	</g>
	<path fill="#FFFFFF" d="M4.189,23.545c-0.914-3.004,2.46-8.389,6.759-12.086C4.983,15.78,0.417,21.812,1.36,24.919
		c0.946,3.104,6.299,3.597,13.02,1.757C9.224,27.568,5.104,26.551,4.189,23.545z"/>
	<path fill="#FFFFFF" d="M36.779,3.003C35.36,0.045,30.035,0.33,23.58,3.245c5.018-1.714,9.178-1.268,10.55,1.588
		c1.366,2.856-1.416,8.766-5.173,13.108C34.306,12.718,38.197,5.961,36.779,3.003z"/>
</g>
<g>
	<path fill="#FFFFFF" d="M42.593,21.939V8.503h5.067c0.893,0,1.573,0.042,2.044,0.128c0.66,0.11,1.213,0.319,1.658,0.627
		c0.447,0.309,0.806,0.74,1.077,1.297c0.272,0.556,0.408,1.166,0.408,1.833c0,1.142-0.364,2.109-1.09,2.9
		c-0.728,0.791-2.042,1.187-3.941,1.187H44.37v5.462H42.593z M44.37,14.89h3.474c1.148,0,1.964-0.213,2.447-0.641
		c0.482-0.427,0.724-1.029,0.724-1.805c0-0.563-0.142-1.043-0.426-1.443c-0.283-0.401-0.658-0.665-1.123-0.792
		c-0.3-0.081-0.853-0.12-1.659-0.12H44.37V14.89z"/>
	<path fill="#FFFFFF" d="M55.148,21.939V8.503h9.715v1.584h-7.937v4.116h7.432v1.576h-7.432v4.573h8.248v1.586H55.148z"/>
	<path fill="#FFFFFF" d="M67.657,21.939V8.503h5.957c1.199,0,2.108,0.12,2.731,0.362c0.623,0.241,1.121,0.667,1.495,1.277
		c0.372,0.612,0.558,1.286,0.558,2.026c0,0.953-0.309,1.757-0.925,2.41c-0.617,0.654-1.57,1.07-2.859,1.247
		c0.47,0.227,0.828,0.45,1.071,0.67c0.521,0.477,1.012,1.071,1.477,1.786l2.336,3.658h-2.235l-1.778-2.796
		c-0.519-0.806-0.946-1.422-1.283-1.851c-0.336-0.427-0.636-0.726-0.902-0.898c-0.265-0.171-0.536-0.291-0.811-0.357
		c-0.202-0.043-0.532-0.065-0.99-0.065h-2.063v5.967H67.657z M69.436,14.432h3.822c0.813,0,1.448-0.083,1.906-0.251
		c0.458-0.169,0.807-0.437,1.045-0.807c0.238-0.371,0.356-0.772,0.356-1.206c0-0.636-0.229-1.157-0.69-1.568
		c-0.463-0.409-1.19-0.613-2.187-0.613h-4.253V14.432z"/>
	<path fill="#FFFFFF" d="M80.58,17.622l1.678-0.147c0.079,0.673,0.264,1.224,0.554,1.655c0.291,0.43,0.74,0.778,1.353,1.045
		c0.61,0.265,1.299,0.397,2.062,0.397c0.678,0,1.277-0.1,1.796-0.301c0.521-0.202,0.907-0.478,1.159-0.829
		c0.254-0.353,0.381-0.736,0.381-1.151c0-0.421-0.121-0.79-0.367-1.104c-0.243-0.315-0.646-0.579-1.209-0.793
		c-0.359-0.14-1.158-0.358-2.392-0.654c-1.235-0.298-2.1-0.577-2.595-0.839c-0.641-0.337-1.119-0.753-1.434-1.251
		c-0.314-0.499-0.473-1.056-0.473-1.673c0-0.678,0.193-1.312,0.578-1.901c0.385-0.591,0.946-1.038,1.687-1.344
		c0.739-0.304,1.561-0.458,2.465-0.458c0.997,0,1.874,0.161,2.635,0.482c0.761,0.32,1.346,0.792,1.756,1.416
		c0.409,0.623,0.629,1.328,0.66,2.116l-1.705,0.128c-0.092-0.849-0.401-1.491-0.931-1.925c-0.528-0.433-1.309-0.65-2.342-0.65
		c-1.074,0-1.858,0.197-2.351,0.591c-0.492,0.395-0.737,0.869-0.737,1.425c0,0.482,0.174,0.88,0.521,1.191
		c0.343,0.312,1.236,0.63,2.681,0.958c1.445,0.327,2.437,0.612,2.975,0.857c0.781,0.359,1.359,0.816,1.731,1.37
		c0.374,0.553,0.561,1.189,0.561,1.911c0,0.715-0.205,1.389-0.615,2.021c-0.409,0.633-0.997,1.124-1.764,1.476
		c-0.768,0.351-1.63,0.526-2.589,0.526c-1.217,0-2.235-0.176-3.057-0.531c-0.822-0.354-1.467-0.887-1.935-1.599
		C80.851,19.325,80.605,18.52,80.58,17.622z"/>
	<path fill="#FFFFFF" d="M93.164,15.395c0-2.23,0.598-3.976,1.796-5.238c1.197-1.262,2.742-1.892,4.638-1.892
		c1.239,0,2.357,0.296,3.354,0.888c0.995,0.593,1.754,1.42,2.276,2.48c0.522,1.059,0.784,2.262,0.784,3.605
		c0,1.363-0.274,2.582-0.824,3.657c-0.551,1.074-1.33,1.889-2.338,2.442c-1.009,0.553-2.096,0.829-3.263,0.829
		c-1.265,0-2.395-0.304-3.392-0.917c-0.995-0.61-1.749-1.445-2.263-2.501C93.421,17.692,93.164,16.574,93.164,15.395z
		 M94.997,15.422c0,1.62,0.434,2.895,1.306,3.827c0.87,0.932,1.962,1.397,3.276,1.397c1.338,0,2.439-0.47,3.304-1.412
		c0.864-0.94,1.297-2.275,1.297-4.004c0-1.094-0.185-2.048-0.556-2.863c-0.369-0.816-0.909-1.448-1.621-1.898
		c-0.712-0.448-1.51-0.674-2.396-0.674c-1.258,0-2.343,0.433-3.249,1.297C95.449,11.956,94.997,13.4,94.997,15.422z"/>
	<path fill="#FFFFFF" d="M108.286,21.939V8.503h1.822l7.058,10.548V8.503h1.706v13.436h-1.825l-7.057-10.558v10.558H108.286z"/>
	<path fill="#FFFFFF" d="M120.382,21.939l5.16-13.436h1.915l5.499,13.436h-2.025l-1.567-4.069h-5.617l-1.475,4.069H120.382z
		 M124.259,16.421h4.555l-1.401-3.721c-0.428-1.131-0.746-2.06-0.953-2.786c-0.171,0.861-0.412,1.716-0.725,2.566L124.259,16.421z"
		/>
	<path fill="#FFFFFF" d="M134.306,21.939V8.503h1.777v11.849h6.617v1.586H134.306z"/>
	<path fill="#FFFFFF" d="M152.415,21.939V10.088h-4.428V8.503h10.649v1.584h-4.445v11.851H152.415z"/>
	<path fill="#FFFFFF" d="M160.486,21.939V8.503h5.959c1.197,0,2.106,0.12,2.729,0.362c0.623,0.241,1.122,0.667,1.494,1.277
		c0.373,0.612,0.559,1.286,0.559,2.026c0,0.953-0.307,1.757-0.925,2.41c-0.617,0.654-1.57,1.07-2.859,1.247
		c0.471,0.227,0.828,0.45,1.071,0.67c0.521,0.477,1.013,1.071,1.477,1.786l2.336,3.658h-2.235l-1.777-2.796
		c-0.52-0.806-0.947-1.422-1.282-1.851c-0.338-0.427-0.638-0.726-0.904-0.898c-0.265-0.171-0.536-0.291-0.811-0.357
		c-0.202-0.043-0.531-0.065-0.99-0.065h-2.061v5.967H160.486z M162.267,14.432h3.82c0.813,0,1.448-0.083,1.906-0.251
		c0.459-0.169,0.807-0.437,1.045-0.807c0.238-0.371,0.356-0.772,0.356-1.206c0-0.636-0.229-1.157-0.69-1.568
		c-0.461-0.409-1.19-0.613-2.186-0.613h-4.252V14.432z"/>
	<path fill="#FFFFFF" d="M172.539,21.939l5.16-13.436h1.915l5.499,13.436h-2.024l-1.568-4.069h-5.617l-1.475,4.069H172.539z
		 M176.417,16.421h4.554l-1.401-3.721c-0.428-1.131-0.746-2.06-0.953-2.786c-0.171,0.861-0.412,1.716-0.725,2.566L176.417,16.421z"
		/>
	<path fill="#FFFFFF" d="M196.121,17.228l1.777,0.448c-0.372,1.461-1.043,2.575-2.012,3.342c-0.969,0.766-2.151,1.149-3.55,1.149
		c-1.45,0-2.627-0.294-3.534-0.884s-1.597-1.444-2.071-2.562c-0.474-1.118-0.71-2.318-0.71-3.601c0-1.4,0.268-2.62,0.802-3.662
		s1.295-1.833,2.281-2.373c0.987-0.542,2.073-0.812,3.259-0.812c1.344,0,2.475,0.343,3.391,1.026
		c0.917,0.685,1.556,1.647,1.915,2.888l-1.75,0.412c-0.312-0.977-0.764-1.689-1.356-2.135c-0.592-0.447-1.338-0.669-2.236-0.669
		c-1.032,0-1.895,0.248-2.589,0.743c-0.693,0.495-1.181,1.159-1.462,1.994c-0.28,0.833-0.421,1.693-0.421,2.579
		c0,1.144,0.166,2.14,0.499,2.993c0.333,0.852,0.852,1.489,1.554,1.911s1.463,0.632,2.282,0.632c0.996,0,1.839-0.287,2.53-0.862
		C195.409,19.21,195.877,18.357,196.121,17.228z"/>
	<path fill="#FFFFFF" d="M200.015,21.939V8.503h1.778v6.662l6.672-6.662h2.411l-5.637,5.444l5.884,7.992h-2.347l-4.784-6.8
		l-2.199,2.145v4.656H200.015z"/>
	<path fill="#FFFFFF" d="M212.646,21.939V8.503h9.715v1.584h-7.937v4.116h7.433v1.576h-7.433v4.573h8.248v1.586H212.646z"/>
	<path fill="#FFFFFF" d="M225.153,21.939V8.503h5.959c1.196,0,2.105,0.12,2.729,0.362c0.623,0.241,1.122,0.667,1.494,1.277
		c0.372,0.612,0.559,1.286,0.559,2.026c0,0.953-0.308,1.757-0.925,2.41c-0.618,0.654-1.571,1.07-2.859,1.247
		c0.471,0.227,0.827,0.45,1.071,0.67c0.521,0.477,1.013,1.071,1.477,1.786l2.336,3.658h-2.236l-1.776-2.796
		c-0.521-0.806-0.947-1.422-1.283-1.851c-0.337-0.427-0.637-0.726-0.903-0.898c-0.266-0.171-0.536-0.291-0.812-0.357
		c-0.201-0.043-0.531-0.065-0.989-0.065h-2.062v5.967H225.153z M226.933,14.432h3.821c0.812,0,1.448-0.083,1.906-0.251
		c0.458-0.169,0.807-0.437,1.045-0.807c0.238-0.371,0.356-0.772,0.356-1.206c0-0.636-0.23-1.157-0.691-1.568
		c-0.461-0.409-1.189-0.613-2.186-0.613h-4.252V14.432z"/>
</g>
</svg>
