<?xml version="1.0" encoding="utf-8"?>
<!-- Generator: Adobe Illustrator 16.0.0, SVG Export Plug-In . SVG Version: 6.00 Build 0)  -->
<!DOCTYPE svg PUBLIC "-//W3C//DTD SVG 1.1//EN" "http://www.w3.org/Graphics/SVG/1.1/DTD/svg11.dtd">
<svg version="1.1" id="Layer_1" xmlns="http://www.w3.org/2000/svg" xmlns:xlink="http://www.w3.org/1999/xlink" x="0px" y="0px"
	 width="153px" height="161.333px" viewBox="0 0 153 161.333" enable-background="new 0 0 153 161.333" xml:space="preserve">
<g display="none">
	<path display="inline" fill="#164C7D" d="M65.145-170.004c-34.807,0-63.023,28.217-63.023,63.023s28.217,63.023,63.023,63.023
		c3.544,0,7.018-0.298,10.404-0.859L64.704-12.122c0,0,42.307-41.039,52.709-59.636c7.655-11.372,10.754-22.176,10.754-35.223
		C128.167-141.787,99.952-170.004,65.145-170.004z M75.551-44.817c0.713-0.118,1.423-0.245,2.126-0.389
		C76.341-44.92,75.573-44.82,75.551-44.817z M65.145-88.713c-10.088,0-18.268-8.179-18.268-18.268s8.179-18.268,18.268-18.268
		c10.089,0,18.267,8.179,18.267,18.268S75.233-88.713,65.145-88.713z"/>
	<path display="inline" fill="#FFFFFF" d="M147.396-91.063c0,1.262-1.077,2.285-2.404,2.285l-80.592,0.079
		c-1.328,0-2.387-0.733-2.387-1.995l1.93-32.163c0-1.262,1.077-2.284,2.405-2.284h82.059c1.33,0,2.406,1.022,2.406,2.284
		L147.396-91.063z"/>
	<g display="inline">
		<g>
			<g>
				<path fill="#ED1F24" d="M54.091-105.883l2.17-7.834h2.712l1.834-6.658h9.266l-1.802,6.658h3.486l-2.105,7.834h-3.501
					l-0.849,3.138c-0.2,0.738-0.174,1.292,0.077,1.661c0.251,0.37,0.676,0.554,1.274,0.554c0.208,0,0.396,0,0.566,0
					c0.168,0,0.335-0.014,0.499-0.041c0.163-0.027,0.344-0.069,0.54-0.124l-1.992,7.411c-0.333,0.073-0.689,0.135-1.067,0.183
					c-0.327,0.049-0.71,0.092-1.151,0.129c-0.441,0.036-0.91,0.055-1.405,0.055c-2.951,0-5.031-0.82-6.238-2.463
					c-1.204-1.643-1.355-4.094-0.458-7.354l0.868-3.148H54.091z"/>
				<path fill="#ED1F24" d="M86.246-112.815c0.483-0.365,1.032-0.613,1.647-0.744s1.311-0.196,2.085-0.196
					c0.388,0,0.742,0.003,1.063,0.007c0.322,0.004,0.611,0.009,0.868,0.015c0.282,0.007,0.539,0.013,0.771,0.018l-3.778,8.617
					c-0.271-0.156-0.548-0.287-0.832-0.392c-0.259-0.104-0.534-0.195-0.824-0.274c-0.292-0.078-0.58-0.117-0.865-0.117
					c-0.986,0-1.913,0.372-2.781,1.116c-0.87,0.744-1.486,1.809-1.849,3.192l-2.256,8.617h-9.4l5.538-20.76h8.911l0.16,2.351
					C85.151-111.889,85.665-112.371,86.246-112.815z"/>
				<path fill="#ED1F24" d="M103.344-113.756c1.654,0,3.108,0.28,4.363,0.84c1.256,0.56,2.273,1.323,3.057,2.29
					c0.782,0.967,1.299,2.099,1.548,3.396c0.251,1.297,0.194,2.684-0.169,4.159l-2.489,10.113h-9.008l-0.165-2.46
					c-0.457,0.467-0.967,0.889-1.532,1.266c-0.496,0.312-1.097,0.595-1.8,0.851c-0.705,0.256-1.501,0.383-2.388,0.383
					c-1.072,0-2.003-0.163-2.794-0.489s-1.42-0.777-1.885-1.352c-0.467-0.574-0.761-1.253-0.885-2.037
					c-0.124-0.783-0.065-1.645,0.177-2.585c0.242-0.939,0.64-1.802,1.192-2.585c0.552-0.783,1.278-1.462,2.18-2.037
					c0.899-0.574,1.981-1.024,3.245-1.351c1.263-0.326,2.725-0.49,4.386-0.49h3.111c-0.055-0.192-0.206-0.364-0.452-0.519
					c-0.224-0.141-0.549-0.267-0.976-0.375c-0.426-0.109-1.028-0.164-1.807-0.164c-0.492,0-0.962,0.039-1.409,0.116
					c-0.446,0.077-0.84,0.167-1.177,0.271c-0.393,0.116-0.763,0.245-1.109,0.387l-2.154-4.494c0.717-0.574,1.549-1.097,2.496-1.566
					c0.798-0.393,1.742-0.751,2.832-1.077C100.824-113.592,102.028-113.756,103.344-113.756z M99.814-98.981
					c0.494,0,1.014-0.277,1.557-0.831c0.542-0.554,0.969-1.454,1.282-2.702c-1.09,0-1.939,0.223-2.545,0.666
					c-0.605,0.442-0.989,0.983-1.149,1.62c-0.077,0.305-0.026,0.589,0.155,0.853C99.293-99.113,99.527-98.981,99.814-98.981z"/>
			</g>
		</g>
		<g>
			<polyline fill="#ED1F24" points="111.412,-114.428 130.941,-92.956 140.242,-92.956 118.959,-114.428 111.412,-114.428 			"/>
			<path fill="#ED1F24" d="M111.066-92.956c0,0,12.983-19.558,39.746-27.389c0,0-19.921,12.035-31.316,27.389H111.066"/>
		</g>
	</g>
</g>
<path fill="#3475AA" d="M125.499,46.858C117.701,20.907,93.636,1.996,65.145,1.996c-34.807,0-63.023,28.217-63.023,63.023
	s28.217,63.023,63.023,63.023c3.544,0,7.018-0.298,10.404-0.859l-10.844,32.694c0,0,42.307-41.039,52.709-59.636
	c3.832-5.692,6.521-11.242,8.253-17.001l-61.267,0.06c-0.255,0-0.496-0.035-0.725-0.088c-9.399-0.751-16.797-8.601-16.797-18.193
	c0-10.089,8.179-18.268,18.268-18.268L125.499,46.858z"/>
<path fill="#164C7D" d="M75.551,127.183c0.713-0.118,1.423-0.245,2.126-0.389C76.341,127.08,75.573,127.18,75.551,127.183z"/>
<g>
	<path fill="#ED1F24" d="M150.812,51.655c-10.472,3.064-18.824,7.924-25.125,12.705l-5.728-6.788h-8.548l9.633,10.591
		c-6.684,5.922-9.979,10.881-9.979,10.881h9.43c1.678-2.261,2.544-4.447,4.5-6.536l4.945,6.536h10.301l-10.846-10.942
		C139.75,58.341,150.812,51.655,150.812,51.655z"/>
	<path fill="#ED1F24" d="M66.271,78.708c0,0-5.422,1.328-8.734-0.953c0,0-3.203-1.818-1.87-7.505
		c1.229-4.667,1.104-4.104,1.104-4.104h-2.75l2.146-7.901h2.75l1.813-6.619H70l-1.808,6.692h3.469l-2.063,7.797h-3.5l-0.859,3.203
		c0,0-1.031,2.906,2.984,2.016L66.271,78.708z"/>
	<path fill="#ED1F24" d="M75.583,58.28h8.891l0.172,2.347c0,0,1.609-2.271,4.219-2.347s3.766,0,3.766,0l-3.766,8.628
		c0,0-3.406-2.438-6.203,1.328c-0.813,1.484-1.234,3.313-1.234,3.313l-1.942,7.491h-9.4L75.583,58.28z"/>
	<path fill="#ED1F24" d="M111.292,64.042c-1.667-5.375-7.177-5.693-7.177-5.693c-6.078-0.719-10.563,3.016-10.563,3.016l2.213,4.48
		c2.35-0.761,5.818-1.324,6.896,0.333c0,0-4.047-0.297-6.984,0.359c-3.844,0.797-6.516,3.094-7.219,6.563s1.5,5.983,5.328,5.983
		s5.906-2.483,5.906-2.483l0.16,2.444h9.009l2.075-8.564C110.937,70.479,112.271,66.688,111.292,64.042z M98.474,72.817
		c-1.094-0.703,0.484-3.672,3.359-3.297C100.865,73.208,98.912,73.224,98.474,72.817z"/>
</g>
</svg>
